<svg width="606" height="720" viewBox="0 0 606 720" fill="none" xmlns="http://www.w3.org/2000/svg">
<path fill-rule="evenodd" clip-rule="evenodd" d="M426.077 887.952C340.033 863.079 282.503 753.358 210.694 677.378C137.025 599.431 -3.01422 573.763 0.601868 437.768C4.76959 281.025 205.593 283.578 225.26 129.562C250.269 -66.2917 23.8946 -278.675 111.166 -428.082C189.303 -561.851 323.1 -301.264 426.077 -214.232C477.414 -170.844 509.586 -96.8607 559.301 -49.3358C614.733 3.65302 683.233 11.1946 731.742 77.9653C818.883 197.912 952.489 306.792 947.476 484.973C942.752 652.925 809.676 745.543 710.813 821.953C623.142 889.712 522.757 915.901 426.077 887.952Z" fill="#FD8061"/>
</svg>
