<svg width="231" height="104" viewBox="0 0 231 104" fill="none" xmlns="http://www.w3.org/2000/svg">
<path d="M142.254 52.1992C142.254 53.8945 142.168 55.5859 142.004 57.2734C141.836 58.9609 141.59 60.6328 141.258 62.2969C140.93 63.957 140.516 65.6016 140.023 67.2227C139.531 68.8438 138.961 70.4375 138.312 72.0039C137.664 73.5703 136.941 75.1016 136.141 76.5938C135.344 78.0898 134.473 79.543 133.531 80.9492C132.59 82.3594 131.582 83.7188 130.508 85.0312C129.43 86.3398 128.293 87.5938 127.094 88.793C125.898 89.9922 124.645 91.1289 123.332 92.2031C122.023 93.2773 120.664 94.2852 119.254 95.2305C117.844 96.1719 116.391 97.0391 114.898 97.8398C113.402 98.6367 111.871 99.3633 110.309 100.012C108.742 100.66 107.148 101.23 105.523 101.723C103.902 102.215 102.262 102.625 100.598 102.957C98.9375 103.285 97.2617 103.535 95.5742 103.699C93.8867 103.867 92.1992 103.949 90.5039 103.949C88.8086 103.949 87.1172 103.867 85.4297 103.699C83.7422 103.535 82.0703 103.285 80.4062 102.957C78.7461 102.625 77.1016 102.215 75.4805 101.723C73.8594 101.23 72.2656 100.66 70.6992 100.012C69.1328 99.3633 67.6016 98.6367 66.1094 97.8398C64.6133 97.0391 63.1602 96.1719 61.7539 95.2305C60.3438 94.2852 58.9844 93.2773 57.6719 92.2031C56.3633 91.1289 55.1094 89.9922 53.9102 88.793C52.7109 87.5938 51.5742 86.3398 50.5 85.0312C49.4258 83.7188 48.4141 82.3594 47.4727 80.9492C46.5312 79.543 45.6641 78.0898 44.8633 76.5938C44.0625 75.1016 43.3398 73.5703 42.6914 72.0039C42.043 70.4375 41.4727 68.8438 40.9805 67.2227C40.4883 65.6016 40.0781 63.957 39.7461 62.2969C39.418 60.6328 39.168 58.9609 39.0039 57.2734C38.8359 55.5859 38.7539 53.8945 38.7539 52.1992C38.7539 50.5039 38.8359 48.8125 39.0039 47.1289C39.168 45.4414 39.418 43.7656 39.7461 42.1055C40.0781 40.4414 40.4883 38.8008 40.9805 37.1797C41.4727 35.5547 42.043 33.9609 42.6914 32.3945C43.3398 30.832 44.0625 29.3008 44.8633 27.8047C45.6641 26.3125 46.5312 24.8594 47.4727 23.4492C48.4141 22.0391 49.4258 20.6797 50.5 19.3711C51.5742 18.0586 52.7109 16.8047 53.9102 15.6055C55.1094 14.4102 56.3633 13.2734 57.6719 12.1953C58.9844 11.1211 60.3438 10.1133 61.7539 9.17188C63.1602 8.23047 64.6133 7.35938 66.1094 6.5625C67.6016 5.76172 69.1328 5.03906 70.6992 4.39062C72.2656 3.74219 73.8594 3.17187 75.4805 2.67969C77.1016 2.1875 78.7461 1.77344 80.4062 1.44531C82.0703 1.11328 83.7422 0.867188 85.4297 0.699219C87.1172 0.53125 88.8086 0.449219 90.5039 0.449219C92.1992 0.449219 93.8867 0.53125 95.5742 0.699219C97.2617 0.867188 98.9375 1.11328 100.598 1.44531C102.262 1.77344 103.902 2.1875 105.523 2.67969C107.148 3.17187 108.742 3.74219 110.309 4.39062C111.871 5.03906 113.402 5.76172 114.898 6.5625C116.391 7.35938 117.844 8.23047 119.254 9.17188C120.664 10.1133 122.023 11.1211 123.332 12.1953C124.645 13.2734 125.898 14.4102 127.094 15.6055C128.293 16.8047 129.43 18.0586 130.508 19.3711C131.582 20.6797 132.59 22.0391 133.531 23.4492C134.473 24.8594 135.344 26.3125 136.141 27.8047C136.941 29.3008 137.664 30.832 138.312 32.3945C138.961 33.9609 139.531 35.5547 140.023 37.1797C140.516 38.8008 140.93 40.4414 141.258 42.1055C141.59 43.7656 141.836 45.4414 142.004 47.1289C142.168 48.8125 142.254 50.5039 142.254 52.1992Z" fill="url(#paint0_linear)"/>
<path d="M51.5938 79.8594C89.9062 79.8594 122.305 38.2969 135.516 42.0859C141.805 43.8633 144.957 41.4805 147.75 39.1055C151.602 35.8086 154.75 32.5156 164.52 40.2461C173.77 47.5664 179.238 38.5469 185.48 29.5351C190.598 22.1445 196.234 14.7578 204.902 16.3594C224.145 19.9219 230.691 57.9297 230.691 57.9297H0.644531C0.644531 57.9297 24.8867 79.8594 51.5938 79.8594Z" fill="url(#paint1_linear)"/>
<path d="M8.6875 63.3242C26.7227 75.4414 50.7344 73.6601 66.7578 59.0195C67.1602 58.6172 67.6211 58.2734 68.0234 57.9297H0.644531L8.6875 63.3242ZM142.004 70.5586C157.629 86.1172 181.926 88.8164 200.535 77.0469L230.691 57.9297H129.082C130 58.7305 130.977 59.5937 131.84 60.4531L142.004 70.5586ZM68.0234 57.9297H129.082C111.621 43.0586 85.7148 42.9414 68.0234 57.9297Z" fill="url(#paint2_linear)"/>
<path d="M81.0859 42.6602C84.6211 42.6602 88.2773 43.9531 92.0312 47.0195L92.2031 47.1602C83.5391 48.3359 75.1211 51.918 68.0234 57.9297H58.3164C65.1914 49.7305 72.8242 42.6524 81.0859 42.6602ZM0.644531 57.9297C0.644531 57.9297 17.4883 73.1641 38.5625 78.2383C35.2188 80.2617 31.9727 81.1094 28.8711 81.1094C12.6953 81.1094 0.644531 57.9297 0.644531 57.9297Z" fill="url(#paint3_linear)"/>
<path d="M0.644531 57.9297L8.6875 63.3242C16.6836 68.6953 25.8516 71.3359 34.9766 71.3359C39.5547 71.3359 44.1289 70.668 48.5352 69.3516C45.3906 72.7812 42.3086 75.7734 39.5312 77.6211C39.2109 77.8359 38.8828 78.043 38.5625 78.2383C17.4883 73.1641 0.644531 57.9297 0.644531 57.9297Z" fill="url(#paint4_linear)"/>
<path d="M105.324 57.9297H129.082C130 58.7305 130.977 59.5938 131.84 60.4531L142.004 70.5586C144.312 72.8594 146.812 74.8789 149.453 76.6133C149.426 76.625 149.391 76.6367 149.355 76.6445C145.641 77.8516 142.223 78.4023 139.02 78.4023C125.945 78.4023 116.438 69.2422 104.75 58.3242C104.938 58.1953 105.133 58.0625 105.324 57.9297Z" fill="url(#paint5_linear)"/>
<path d="M104.324 57.9297H105.324C105.133 58.0625 104.938 58.1953 104.75 58.3242C104.605 58.1953 104.469 58.0625 104.324 57.9297Z" fill="url(#paint6_linear)"/>
<path d="M211.707 69.9648C203.828 81.8242 199.348 98.4062 187.039 100.012C186.352 100.102 185.699 100.141 185.07 100.141C177.504 100.141 174.191 93.9727 170.781 87.8047C170.043 86.4609 169.301 85.1172 168.504 83.8398C170.777 84.1719 173.07 84.3398 175.367 84.3398C184.051 84.3398 192.785 81.9492 200.535 77.0469L211.707 69.9648Z" fill="url(#paint7_linear)"/>
<path d="M92.2031 47.1602C96.6172 50.7891 100.578 54.4687 104.324 57.9297H68.0234C75.1211 51.918 83.5391 48.3359 92.2031 47.1602ZM0.644531 57.9297H58.3164C55.1953 61.6641 51.8359 65.75 48.5352 69.3516C44.1289 70.668 39.5547 71.3359 34.9766 71.3359C25.8516 71.3359 16.6836 68.6953 8.6875 63.3242L0.644531 57.9297ZM104.324 57.9297H129.082H104.324ZM129.082 57.9297H230.691C221.844 57.9297 216.219 63.1719 211.707 69.9648L200.535 77.0469C192.785 81.9492 184.051 84.3398 175.367 84.3398C173.07 84.3398 170.777 84.1719 168.504 83.8398C165.652 79.2422 162.168 75.4648 155.969 75.4648C154.074 75.4648 151.918 75.8203 149.453 76.6133C146.812 74.8789 144.312 72.8594 142.004 70.5586L131.84 60.4531C130.977 59.5938 130 58.7305 129.082 57.9297Z" fill="url(#paint8_linear)"/>
<defs>
<linearGradient id="paint0_linear" x1="90.5039" y1="0.449219" x2="90.5039" y2="103.949" gradientUnits="userSpaceOnUse">
<stop stop-color="#E93030"/>
<stop offset="1" stop-color="#F30606" stop-opacity="0"/>
</linearGradient>
<linearGradient id="paint1_linear" x1="115.668" y1="16.1385" x2="115.668" y2="79.8594" gradientUnits="userSpaceOnUse">
<stop stop-color="#525252"/>
<stop offset="1" stop-color="#525252" stop-opacity="0"/>
</linearGradient>
<linearGradient id="paint2_linear" x1="115.668" y1="46.7324" x2="115.668" y2="84.3394" gradientUnits="userSpaceOnUse">
<stop stop-color="#E43397"/>
<stop offset="1" stop-color="#E43397" stop-opacity="0"/>
</linearGradient>
<linearGradient id="paint3_linear" x1="46.4238" y1="42.6602" x2="46.4238" y2="81.1094" gradientUnits="userSpaceOnUse">
<stop stop-color="#00C4CC"/>
<stop offset="1" stop-color="#00C4CC" stop-opacity="0"/>
</linearGradient>
<linearGradient id="paint4_linear" x1="24.5898" y1="57.9297" x2="24.5898" y2="78.2383" gradientUnits="userSpaceOnUse">
<stop stop-color="#7900FF"/>
<stop offset="1" stop-color="#7900FF" stop-opacity="0"/>
</linearGradient>
<linearGradient id="paint5_linear" x1="127.102" y1="57.9297" x2="127.102" y2="78.4023" gradientUnits="userSpaceOnUse">
<stop stop-color="#00C4CC"/>
<stop offset="1" stop-color="#00C4CC" stop-opacity="0"/>
</linearGradient>
<linearGradient id="paint6_linear" x1="104.824" y1="57.9297" x2="104.824" y2="58.3242" gradientUnits="userSpaceOnUse">
<stop stop-color="#7900FF"/>
<stop offset="1" stop-color="#7900FF" stop-opacity="0"/>
</linearGradient>
<linearGradient id="paint7_linear" x1="190.105" y1="69.9648" x2="190.105" y2="100.141" gradientUnits="userSpaceOnUse">
<stop stop-color="#00C4CC"/>
<stop offset="1" stop-color="#00C4CC" stop-opacity="0"/>
</linearGradient>
<linearGradient id="paint8_linear" x1="115.668" y1="47.1602" x2="115.668" y2="84.3398" gradientUnits="userSpaceOnUse">
<stop stop-color="#CB88FF"/>
<stop offset="1" stop-color="#CB88FF" stop-opacity="0"/>
</linearGradient>
</defs>
</svg>
